<svg xmlns="http://www.w3.org/2000/svg" role="img" viewBox="0 0 24 24">
  <title>Google Analytics</title>
  <path d="M22.84 2.998v17.999a2.983 2.983 0 0 1-2.967 2.998 2.98 2.98 0 0 1-.464-.037 3.03 3.03 0 0 1-2.514-3.043V3.13A3.028 3.028 0 0 1 19.395.09a2.982 2.982 0 0 1 3.445 2.907Z" fill="#F9AB00"/>
  <path d="M4.133 18.055a2.973 2.973 0 1 0 0 5.945 2.973 2.973 0 0 0 0-5.945Zm7.872-7.986a2.996 2.996 0 0 0-2.973 3.235v6.977c0 1.923.846 3.092 2.087 3.34a2.977 2.977 0 0 0 3.552-2.93v-7.65a2.98 2.98 0 0 0-2.666-2.972Z" fill="#E37400"/>
</svg>
